<svg xmlns="http://www.w3.org/2000/svg" viewBox="0 0 1200 500">
  <defs>
    <linearGradient id="grad2" x1="100%" y1="0%" x2="0%" y2="100%">
      <stop offset="0%" stop-color="#354393" stop-opacity="0.8" />
      <stop offset="100%" stop-color="#4aacc4" stop-opacity="0.8" />
    </linearGradient>
  </defs>
  
  <!-- Background -->
  <rect width="100%" height="100%" fill="url(#grad2)" />
  
  <!-- Abstract Wave Pattern -->
  <path d="M0,500 C250,400 350,450 500,350 C650,250 700,300 850,250 C1000,200 1050,250 1200,200 L1200,500 Z" 
        fill="#ffffff" fill-opacity="0.1" />
  <path d="M0,500 C200,450 350,400 500,400 C650,400 800,350 1000,375 C1100,387.5 1150,400 1200,375 L1200,500 Z" 
        fill="#ffffff" fill-opacity="0.15" />
  
  <!-- Calendar Icon -->
  <g transform="translate(600, 200) scale(2)" fill="#ffffff" fill-opacity="0.15">
    <rect x="-40" y="-40" width="80" height="80" rx="5" />
    <rect x="-35" y="-35" width="70" height="15" rx="2" />
    <rect x="-30" y="-15" width="10" height="10" rx="1" />
    <rect x="-10" y="-15" width="10" height="10" rx="1" />
    <rect x="10" y="-15" width="10" height="10" rx="1" />
    <rect x="-30" y="5" width="10" height="10" rx="1" />
    <rect x="-10" y="5" width="10" height="10" rx="1" />
    <rect x="10" y="5" width="10" height="10" rx="1" />
    <rect x="-30" y="25" width="10" height="10" rx="1" />
    <rect x="-10" y="25" width="10" height="10" rx="1" />
    <rect x="10" y="25" width="10" height="10" rx="1" />
  </g>
</svg>
