<svg xmlns="http://www.w3.org/2000/svg" viewBox="0 0 1200 500">
  <defs>
    <linearGradient id="grad3" x1="0%" y1="100%" x2="100%" y2="0%">
      <stop offset="0%" stop-color="#354393" stop-opacity="0.8" />
      <stop offset="100%" stop-color="#4aacc4" stop-opacity="0.8" />
    </linearGradient>
  </defs>
  
  <!-- Background -->
  <rect width="100%" height="100%" fill="url(#grad3)" />
  
  <!-- Diagonal Lines Pattern -->
  <g stroke="#ffffff" stroke-opacity="0.1" stroke-width="2">
    <line x1="0" y1="0" x2="1200" y2="500" />
    <line x1="100" y1="0" x2="1200" y2="458.3" />
    <line x1="200" y1="0" x2="1200" y2="416.7" />
    <line x1="300" y1="0" x2="1200" y2="375" />
    <line x1="400" y1="0" x2="1200" y2="333.3" />
    <line x1="500" y1="0" x2="1200" y2="291.7" />
    <line x1="600" y1="0" x2="1200" y2="250" />
    <line x1="700" y1="0" x2="1200" y2="208.3" />
    <line x1="800" y1="0" x2="1200" y2="166.7" />
    <line x1="900" y1="0" x2="1200" y2="125" />
    <line x1="1000" y1="0" x2="1200" y2="83.3" />
    <line x1="1100" y1="0" x2="1200" y2="41.7" />
    
    <line x1="0" y1="41.7" x2="1158.3" y2="500" />
    <line x1="0" y1="83.3" x2="1116.7" y2="500" />
    <line x1="0" y1="125" x2="1075" y2="500" />
    <line x1="0" y1="166.7" x2="1033.3" y2="500" />
    <line x1="0" y1="208.3" x2="991.7" y2="500" />
    <line x1="0" y1="250" x2="950" y2="500" />
    <line x1="0" y1="291.7" x2="908.3" y2="500" />
    <line x1="0" y1="333.3" x2="866.7" y2="500" />
    <line x1="0" y1="375" x2="825" y2="500" />
    <line x1="0" y1="416.7" x2="783.3" y2="500" />
    <line x1="0" y1="458.3" x2="741.7" y2="500" />
  </g>
  
  <!-- People Icon -->
  <g transform="translate(600, 200) scale(2)" fill="#ffffff" fill-opacity="0.15">
    <circle cx="-20" cy="-20" r="15" />
    <path d="M-30,0 L-10,0 L-5,40 L-35,40 Z" />
    
    <circle cx="20" cy="-20" r="15" />
    <path d="M10,0 L30,0 L35,40 L5,40 Z" />
  </g>
</svg>
